<?xml version="1.0" standalone="no"?>
<!DOCTYPE svg PUBLIC "-//W3C//DTD SVG 20010904//EN"
 "http://www.w3.org/TR/2001/REC-SVG-20010904/DTD/svg10.dtd">
<svg version="1.0" xmlns="http://www.w3.org/2000/svg"
 width="720.000000pt" height="720.000000pt" viewBox="0 0 720.000000 720.000000"
 preserveAspectRatio="xMidYMid meet">
<metadata>
Created by potrace 1.11, written by Peter Selinger 2001-2013
</metadata>
<g transform="translate(0.000000,720.000000) scale(0.100000,-0.100000)"
fill="#000000" stroke="none">
<path d="M1745 7142 c-730 -383 -1341 -998 -1701 -1714 l-44 -88 0 -1741 0
-1741 55 -106 c359 -702 976 -1323 1671 -1684 l131 -68 1746 0 1745 0 129 69
c706 377 1286 956 1653 1652 l70 133 0 1743 0 1743 -51 103 c-95 188 -246 424
-392 612 -360 462 -837 855 -1344 1109 l-73 36 -1742 0 -1743 0 -110 -58z"/>
</g>
</svg>
